<svg width="58" height="58" viewBox="0 0 58 58" fill="none" xmlns="http://www.w3.org/2000/svg">
  <mask id="path-1-outside-1_23_426" maskUnits="userSpaceOnUse" x="0" y="0" width="58" height="58" fill="black">
    <rect fill="white" width="58" height="58"/>
    <path fill-rule="evenodd" clip-rule="evenodd" d="M20.6 4C6.9299 4 4 6.9299 4 20.6V37.4C4 51.0701 6.9299 54 20.6 54H33V48.6C33 34.9299 35.9299 32 49.6 32H54V20.6C54 6.9299 51.0701 4 37.4 4H20.6Z"/>
  </mask>
  <path d="M33 54V58H37V54H33ZM54 32V36H58V32H54ZM8 20.6C8 17.2738 8.18345 14.8739 8.57612 13.107C8.95871 11.3855 9.48471 10.5196 10.0021 10.0021C10.5196 9.48471 11.3855 8.95871 13.107 8.57612C14.8739 8.18345 17.2738 8 20.6 8V0C17.0912 0 13.9986 0.18279 11.3714 0.76666C8.69878 1.36062 6.26909 2.42148 4.34529 4.34529C2.42148 6.26909 1.36062 8.69878 0.76666 11.3714C0.18279 13.9986 0 17.0912 0 20.6H8ZM8 37.4V20.6H0V37.4H8ZM20.6 50C17.2738 50 14.8739 49.8166 13.107 49.4239C11.3855 49.0413 10.5196 48.5153 10.0021 47.9979C9.48471 47.4804 8.95871 46.6145 8.57612 44.893C8.18345 43.1261 8 40.7262 8 37.4H0C0 40.9088 0.18279 44.0014 0.76666 46.6286C1.36062 49.3012 2.42148 51.7309 4.34529 53.6547C6.26909 55.5785 8.69878 56.6394 11.3714 57.2333C13.9986 57.8172 17.0912 58 20.6 58V50ZM33 50H20.6V58H33V50ZM37 54V48.6H29V54H37ZM37 48.6C37 45.2738 37.1834 42.8739 37.5761 41.107C37.9587 39.3855 38.4847 38.5196 39.0021 38.0021C39.5196 37.4847 40.3855 36.9587 42.107 36.5761C43.8739 36.1834 46.2738 36 49.6 36V28C46.0912 28 42.9986 28.1828 40.3714 28.7667C37.6988 29.3606 35.2691 30.4215 33.3453 32.3453C31.4215 34.2691 30.3606 36.6988 29.7667 39.3714C29.1828 41.9986 29 45.0912 29 48.6H37ZM49.6 36H54V28H49.6V36ZM50 20.6V32H58V20.6H50ZM37.4 8C40.7262 8 43.1261 8.18345 44.893 8.57612C46.6145 8.95871 47.4804 9.48471 47.9979 10.0021C48.5153 10.5196 49.0413 11.3855 49.4239 13.107C49.8166 14.8739 50 17.2738 50 20.6H58C58 17.0912 57.8172 13.9986 57.2333 11.3714C56.6394 8.69878 55.5785 6.26909 53.6547 4.34529C51.7309 2.42148 49.3012 1.36062 46.6286 0.76666C44.0014 0.18279 40.9088 0 37.4 0V8ZM20.6 8H37.4V0H20.6V8Z" fill="#FFAF13" mask="url(#path-1-outside-1_23_426)"/>
  <path d="M4 20H54" stroke="#FFAF13" stroke-width="4"/>
  <path fill-rule="evenodd" clip-rule="evenodd" d="M58 30.2793L32.0677 58H37.5452L58 36.1345V30.2793Z" fill="#FFAF13"/>
</svg>
